<svg id="Layer_1" data-name="Layer 1" xmlns="http://www.w3.org/2000/svg" viewBox="0 0 634.91 483.94"><defs><style>.cls-1{fill:#fff;}</style></defs><path class="cls-1" d="M760,338.15a523.61,523.61,0,0,0-129.23-40.09,2,2,0,0,0-2.08,1,364.12,364.12,0,0,0-16.09,33.05,483.09,483.09,0,0,0-145.15,0,334.49,334.49,0,0,0-16.34-33.05,2,2,0,0,0-2.08-1,521.73,521.73,0,0,0-129.23,40.09,1.83,1.83,0,0,0-.85.73c-82.31,123-104.86,242.91-93.8,361.37a2.15,2.15,0,0,0,.83,1.49c54.3,39.88,106.91,64.09,158.53,80.14a2.06,2.06,0,0,0,2.23-.73,376.39,376.39,0,0,0,32.43-52.75,2,2,0,0,0-1.1-2.8A346.63,346.63,0,0,1,368.57,702a2,2,0,0,1-.2-3.37c3.33-2.5,6.65-5.09,9.83-7.71a2,2,0,0,1,2.06-.28c103.9,47.44,216.39,47.44,319.07,0a2,2,0,0,1,2.08.25c3.18,2.62,6.51,5.24,9.86,7.74a2,2,0,0,1-.17,3.37,324.7,324.7,0,0,1-49.55,23.58,2,2,0,0,0-1.08,2.83,422.3,422.3,0,0,0,32.41,52.73,2,2,0,0,0,2.23.75c51.87-16,104.48-40.26,158.78-80.14a2,2,0,0,0,.83-1.46C868,563.33,832.55,444.36,760.85,338.9A1.64,1.64,0,0,0,760,338.15Zm-325.31,290c-31.28,0-57.06-28.72-57.06-64s25.28-64,57.06-64c32,0,57.56,29,57.06,64C491.77,599.4,466.49,628.12,434.71,628.12Zm211,0c-31.28,0-57.06-28.72-57.06-64s25.28-64,57.06-64c32,0,57.56,29,57.06,64C702.74,599.4,677.71,628.12,645.68,628.12Z" transform="translate(-222.55 -298.03)"/></svg>