<svg id="Layer_2" data-name="Layer 2" xmlns="http://www.w3.org/2000/svg" viewBox="0 0 491.67 491.67"><defs><style>.cls-1{fill:#fff;}</style></defs><path class="cls-1" d="M540,338.46c65.64,0,73.41.25,99.34,1.43,24,1.1,37,5.1,45.65,8.47A81.44,81.44,0,0,1,731.64,395c3.37,8.67,7.37,21.68,8.47,45.65,1.18,25.93,1.43,33.7,1.43,99.34s-.25,73.42-1.43,99.34c-1.1,24-5.1,37-8.47,45.65A81.44,81.44,0,0,1,685,731.64c-8.67,3.37-21.68,7.37-45.65,8.47-25.92,1.18-33.7,1.43-99.34,1.43s-73.42-.25-99.34-1.43c-24-1.1-37-5.1-45.65-8.47A81.44,81.44,0,0,1,348.36,685c-3.37-8.67-7.37-21.68-8.47-45.65-1.18-25.92-1.43-33.7-1.43-99.34s.25-73.41,1.43-99.34c1.1-24,5.1-37,8.47-45.65A81.44,81.44,0,0,1,395,348.36c8.67-3.37,21.68-7.37,45.65-8.47,25.92-1.18,33.7-1.43,99.34-1.43m0-44.29c-66.77,0-75.14.28-101.36,1.48s-44,5.35-59.67,11.42a125.77,125.77,0,0,0-71.9,71.9c-6.08,15.64-10.23,33.51-11.42,59.67s-1.48,34.6-1.48,101.36.28,75.14,1.48,101.36,5.34,44,11.42,59.67a125.77,125.77,0,0,0,71.9,71.9c15.64,6.08,33.51,10.23,59.67,11.42s34.59,1.48,101.36,1.48,75.14-.28,101.36-1.48,44-5.34,59.67-11.42a125.77,125.77,0,0,0,71.9-71.9c6.07-15.64,10.23-33.51,11.42-59.67s1.48-34.59,1.48-101.36-.28-75.14-1.48-101.36-5.35-44-11.42-59.67a125.77,125.77,0,0,0-71.9-71.9c-15.64-6.07-33.51-10.23-59.67-11.42S606.76,294.17,540,294.17Zm0,119.59A126.24,126.24,0,1,0,666.24,540,126.24,126.24,0,0,0,540,413.76ZM540,622a81.95,81.95,0,1,1,81.94-82A81.95,81.95,0,0,1,540,622ZM700.73,408.77a29.5,29.5,0,1,1-29.5-29.5A29.5,29.5,0,0,1,700.73,408.77Z" transform="translate(-294.17 -294.17)"/></svg>