<svg id="Layer_1" data-name="Layer 1" xmlns="http://www.w3.org/2000/svg" viewBox="0 0 613.71 547.72"><defs><style>.cls-1{fill:#fff;}</style></defs><path id="path888" class="cls-1" d="M846.85,544.4A67.28,67.28,0,0,0,733,496c-46.19-33-109.43-54.45-179.82-57.19L584,294.74l100.09,21.44A48.32,48.32,0,1,0,689,293.09L577.39,269.44c-3.3-.55-6.59,0-8.79,1.65a10.7,10.7,0,0,0-5,7.7l-34.1,160.58C458.06,441.57,393.72,463,347,496.56A67.13,67.13,0,1,0,272.74,606a122,122,0,0,0-1.65,20.35c0,103.38,120.43,187.52,268.91,187.52s268.91-83.59,268.91-187.52A126.94,126.94,0,0,0,807.26,606a67.72,67.72,0,0,0,39.59-61.59ZM386,592.24a47.85,47.85,0,1,1,47.85,47.84C407.47,640.63,386,618.64,386,592.24Zm267.81,127c-33,33-95.68,35.2-113.83,35.2-18.7,0-81.39-2.75-113.83-35.2a12.44,12.44,0,1,1,17.59-17.59c20.9,20.89,64.89,28,96.24,28s75.89-7.15,96.24-28a12.27,12.27,0,0,1,17.59,0A13.37,13.37,0,0,1,653.83,719.27ZM645,640.63a47.84,47.84,0,1,1,47.85-47.84C692.88,618.64,671.43,640.63,645,640.63Z" transform="translate(-233.15 -266.14)"/></svg>