<svg id="Layer_1" data-name="Layer 1" xmlns="http://www.w3.org/2000/svg" viewBox="0 0 493.95 404.41"><defs><style>.cls-1{fill:#fff;}</style></defs><path class="cls-1" d="M779.35,384.47a187.87,187.87,0,0,1-23.89,8.7A105.58,105.58,0,0,0,777,355.36a8,8,0,0,0-11.65-9.28,187.81,187.81,0,0,1-55.57,22,106.09,106.09,0,0,0-180.26,75.79,107.69,107.69,0,0,0,.87,13.7A271.46,271.46,0,0,1,344,358.68a8,8,0,0,0-13.06,1,106.21,106.21,0,0,0,10.87,122.05,90.44,90.44,0,0,1-14.19-6.33,8,8,0,0,0-11.83,6.78c0,.47,0,.94,0,1.42a106.4,106.4,0,0,0,51.9,91.18c-2.69-.27-5.39-.66-8.06-1.17a8,8,0,0,0-9.08,10.26A106,106,0,0,0,428.23,655,187.57,187.57,0,0,1,328,683.58a190.71,190.71,0,0,1-22.46-1.32,8,8,0,0,0-5.24,14.62A286,286,0,0,0,454.9,742.2c108,0,175.49-50.9,213.13-93.61C715,595.34,741.9,524.85,741.9,455.21c0-2.91,0-5.85-.14-8.78a206,206,0,0,0,47.44-50.25,8,8,0,0,0-9.85-11.71Z" transform="translate(-296.6 -337.8)"/></svg>